<?xml version="1.0" encoding="UTF-8"?>
<svg version="1.1" xmlns="http://www.w3.org/2000/svg" width="1024" height="1024">
<path d="M0 0 C337.92 0 675.84 0 1024 0 C1024 337.92 1024 675.84 1024 1024 C686.08 1024 348.16 1024 0 1024 C0 686.08 0 348.16 0 0 Z " fill="#FDFDFD" transform="translate(0,0)"/>
<path d="M0 0 C2.34119243 -0.00963057 4.68147624 -0.04069735 7.02246094 -0.07226562 C20.71703042 -0.16863008 33.82118955 1.73831056 46.99902344 5.55273438 C47.74144287 5.76510742 48.4838623 5.97748047 49.2487793 6.19628906 C67.14968751 11.46654897 84.23326563 19.60444692 98.87402344 31.24023438 C99.75058594 31.91441406 100.62714844 32.58859375 101.53027344 33.28320312 C128.63607536 54.66407274 149.93364344 85.51642069 154.87402344 120.24023438 C154.91240531 121.90645903 154.92627327 123.57438692 154.87402344 125.24023438 C155.58469971 125.36317871 156.29537598 125.48612305 157.02758789 125.61279297 C159.97202759 126.26183749 162.60817415 127.18611721 165.41699219 128.27929688 C166.48240234 128.69163574 167.5478125 129.10397461 168.64550781 129.52880859 C170.33643555 130.19033936 170.33643555 130.19033936 172.06152344 130.86523438 C173.22103516 131.31527832 174.38054687 131.76532227 175.57519531 132.22900391 C177.91556113 133.13788698 180.25525082 134.04851312 182.59423828 134.9609375 C186.26817372 136.3939747 189.94529493 137.81863596 193.62329102 139.24121094 C195.80351364 140.08785341 197.97942047 140.94493883 200.15527344 141.80273438 C202.3683097 142.65819377 204.59428358 143.48284832 206.84277344 144.24023438 C215.25522215 147.14824134 221.90803047 152.89259515 226.99902344 160.17773438 C230.96203681 168.3310307 230.26179685 179.25269155 227.62402344 187.71679688 C226.2325974 191.65075808 224.59282949 195.43878741 222.87402344 199.24023438 C222.3046223 200.55795471 221.73810918 201.87692758 221.17480469 203.19726562 C220.74554687 204.20144531 220.31628906 205.205625 219.87402344 206.24023438 C220.61523438 206.48515625 221.35644531 206.73007812 222.12011719 206.98242188 C229.2177594 210.22418187 234.16896053 218.10314749 236.87402344 225.24023438 C241.03195286 239.8660009 237.24305236 255.85028021 230.27246094 268.90429688 C223.20133809 280.71583727 213.27532372 289.43492689 199.87402344 293.24023438 C193.8704557 294.14414233 187.93204966 294.24725263 181.87402344 294.24023438 C181.42599365 295.28775879 180.97796387 296.3352832 180.51635742 297.41455078 C178.8226985 301.37130054 177.12342474 305.32561953 175.42260742 309.27929688 C174.6929288 310.97755131 173.96469236 312.67642628 173.23803711 314.37597656 C162.12060125 340.37036766 162.12060125 340.37036766 156.87402344 348.24023438 C156.21402344 348.24023438 155.55402344 348.24023438 154.87402344 348.24023438 C154.54402344 349.23023438 154.21402344 350.22023438 153.87402344 351.24023438 C149.07664306 354.87214947 143.97537063 357.99618049 137.87402344 358.24023438 C137.04773438 358.30082031 136.22144531 358.36140625 135.37011719 358.42382812 C117.9082137 359.19112881 99.69576186 350.81100372 83.31152344 345.61523438 C80.82919477 344.83108509 78.34677357 344.04722867 75.86425781 343.26367188 C71.33368443 341.83228113 66.8032779 340.40037691 62.27416992 338.96435547 C61.31933212 338.66620438 60.36449432 338.36805328 59.38072205 338.06086731 C57.39001699 337.40915828 55.43477756 336.64932364 53.49707031 335.85375977 C49.88362574 335.00858234 48.29371374 335.95072509 45.03417969 337.65039062 C43.90431641 338.22200928 42.77445313 338.79362793 41.61035156 339.38256836 C40.71425171 339.85157059 40.71425171 339.85157059 39.80004883 340.33004761 C36.58915493 342.0060076 33.34196678 343.6087338 30.09667969 345.21679688 C29.42343658 345.55188766 28.75019348 345.88697845 28.05654907 346.23222351 C-9.58242727 364.83728594 -53.71236634 383.34090828 -95.75097656 369.55273438 C-110.72550244 363.58088447 -122.98161696 354.61778758 -132.12597656 341.24023438 C-133.81400391 341.67335938 -133.81400391 341.67335938 -135.53613281 342.11523438 C-153.89265717 346.63645659 -172.25640375 347.35378902 -189.41113281 337.95898438 C-199.92522945 331.30257787 -207.05352073 322.04512043 -210.71582031 310.11523438 C-211.12597656 308.24023438 -211.12597656 308.24023438 -211.12597656 305.24023438 C-212.03347656 305.32273437 -212.94097656 305.40523437 -213.87597656 305.49023438 C-223.43032354 305.45163095 -232.46255108 300.54054782 -240.12597656 295.24023438 C-240.76277344 294.80066406 -241.39957031 294.36109375 -242.05566406 293.90820312 C-251.27486878 286.79917193 -256.51865363 275.35392109 -258.50488281 264.09179688 C-258.93471481 257.2976782 -256.40758207 250.19175809 -252.29003906 244.86523438 C-246.99376657 239.34574734 -241.64020888 236.51999753 -234.25097656 234.55273438 C-209.90117037 227.22280412 -190.07392251 210.74003381 -177.99707031 188.38085938 C-175.91555456 184.39055355 -173.99087656 180.33564081 -172.12597656 176.24023438 C-171.61421875 175.11746094 -171.10246094 173.9946875 -170.57519531 172.83789062 C-163.95597164 157.26219717 -159.69623376 140.62019178 -155.56347656 124.24023438 C-151.60736412 108.75986666 -145.70358916 94.2848532 -138.12597656 80.24023438 C-137.79452637 79.61745605 -137.46307617 78.99467773 -137.12158203 78.35302734 C-132.83548607 70.34826679 -128.09487 63.09932606 -122.12597656 56.24023438 C-121.46210938 55.45519531 -120.79824219 54.67015625 -120.11425781 53.86132812 C-109.53668937 41.68050531 -97.88043951 31.62914544 -84.12597656 23.24023438 C-83.53816406 22.87559082 -82.95035156 22.51094727 -82.34472656 22.13525391 C-57.4738235 6.8060617 -29.02302659 0.07180955 0 0 Z " fill="#FDFDFD" transform="translate(506.1259765625,274.759765625)"/>
<path d="M0 0 C2.34119243 -0.00963057 4.68147624 -0.04069735 7.02246094 -0.07226562 C20.71703042 -0.16863008 33.82118955 1.73831056 46.99902344 5.55273438 C47.74144287 5.76510742 48.4838623 5.97748047 49.2487793 6.19628906 C67.14968751 11.46654897 84.23326563 19.60444692 98.87402344 31.24023438 C99.75058594 31.91441406 100.62714844 32.58859375 101.53027344 33.28320312 C128.63607536 54.66407274 149.93364344 85.51642069 154.87402344 120.24023438 C154.91240531 121.90645903 154.92627327 123.57438692 154.87402344 125.24023438 C155.58469971 125.36317871 156.29537598 125.48612305 157.02758789 125.61279297 C159.97202759 126.26183749 162.60817415 127.18611721 165.41699219 128.27929688 C166.48240234 128.69163574 167.5478125 129.10397461 168.64550781 129.52880859 C170.33643555 130.19033936 170.33643555 130.19033936 172.06152344 130.86523438 C173.22103516 131.31527832 174.38054687 131.76532227 175.57519531 132.22900391 C177.91556113 133.13788698 180.25525082 134.04851312 182.59423828 134.9609375 C186.26817372 136.3939747 189.94529493 137.81863596 193.62329102 139.24121094 C195.80351364 140.08785341 197.97942047 140.94493883 200.15527344 141.80273438 C202.3683097 142.65819377 204.59428358 143.48284832 206.84277344 144.24023438 C215.25522215 147.14824134 221.90803047 152.89259515 226.99902344 160.17773438 C230.96203681 168.3310307 230.26179685 179.25269155 227.62402344 187.71679688 C226.2325974 191.65075808 224.59282949 195.43878741 222.87402344 199.24023438 C222.3046223 200.55795471 221.73810918 201.87692758 221.17480469 203.19726562 C220.74554687 204.20144531 220.31628906 205.205625 219.87402344 206.24023438 C220.61523438 206.48515625 221.35644531 206.73007812 222.12011719 206.98242188 C229.2177594 210.22418187 234.16896053 218.10314749 236.87402344 225.24023438 C241.03195286 239.8660009 237.24305236 255.85028021 230.27246094 268.90429688 C223.20133809 280.71583727 213.27532372 289.43492689 199.87402344 293.24023438 C193.8704557 294.14414233 187.93204966 294.24725263 181.87402344 294.24023438 C181.42599365 295.28775879 180.97796387 296.3352832 180.51635742 297.41455078 C178.8226985 301.37130054 177.12342474 305.32561953 175.42260742 309.27929688 C174.6929288 310.97755131 173.96469236 312.67642628 173.23803711 314.37597656 C162.12060125 340.37036766 162.12060125 340.37036766 156.87402344 348.24023438 C156.21402344 348.24023438 155.55402344 348.24023438 154.87402344 348.24023438 C154.54402344 349.23023438 154.21402344 350.22023438 153.87402344 351.24023438 C149.07664306 354.87214947 143.97537063 357.99618049 137.87402344 358.24023438 C137.04773438 358.30082031 136.22144531 358.36140625 135.37011719 358.42382812 C117.9082137 359.19112881 99.69576186 350.81100372 83.31152344 345.61523438 C80.82919477 344.83108509 78.34677357 344.04722867 75.86425781 343.26367188 C71.33368443 341.83228113 66.8032779 340.40037691 62.27416992 338.96435547 C61.31933212 338.66620438 60.36449432 338.36805328 59.38072205 338.06086731 C57.39001699 337.40915828 55.43477756 336.64932364 53.49707031 335.85375977 C49.88362574 335.00858234 48.29371374 335.95072509 45.03417969 337.65039062 C43.90431641 338.22200928 42.77445313 338.79362793 41.61035156 339.38256836 C40.71425171 339.85157059 40.71425171 339.85157059 39.80004883 340.33004761 C36.58915493 342.0060076 33.34196678 343.6087338 30.09667969 345.21679688 C29.42343658 345.55188766 28.75019348 345.88697845 28.05654907 346.23222351 C-9.58242727 364.83728594 -53.71236634 383.34090828 -95.75097656 369.55273438 C-110.72550244 363.58088447 -122.98161696 354.61778758 -132.12597656 341.24023438 C-133.81400391 341.67335938 -133.81400391 341.67335938 -135.53613281 342.11523438 C-153.89265717 346.63645659 -172.25640375 347.35378902 -189.41113281 337.95898438 C-199.92522945 331.30257787 -207.05352073 322.04512043 -210.71582031 310.11523438 C-211.12597656 308.24023438 -211.12597656 308.24023438 -211.12597656 305.24023438 C-212.03347656 305.32273437 -212.94097656 305.40523437 -213.87597656 305.49023438 C-223.43032354 305.45163095 -232.46255108 300.54054782 -240.12597656 295.24023438 C-240.76277344 294.80066406 -241.39957031 294.36109375 -242.05566406 293.90820312 C-251.27486878 286.79917193 -256.51865363 275.35392109 -258.50488281 264.09179688 C-258.93471481 257.2976782 -256.40758207 250.19175809 -252.29003906 244.86523438 C-246.99376657 239.34574734 -241.64020888 236.51999753 -234.25097656 234.55273438 C-209.90117037 227.22280412 -190.07392251 210.74003381 -177.99707031 188.38085938 C-175.91555456 184.39055355 -173.99087656 180.33564081 -172.12597656 176.24023438 C-171.61421875 175.11746094 -171.10246094 173.9946875 -170.57519531 172.83789062 C-163.95597164 157.26219717 -159.69623376 140.62019178 -155.56347656 124.24023438 C-151.60736412 108.75986666 -145.70358916 94.2848532 -138.12597656 80.24023438 C-137.79452637 79.61745605 -137.46307617 78.99467773 -137.12158203 78.35302734 C-132.83548607 70.34826679 -128.09487 63.09932606 -122.12597656 56.24023438 C-121.46210938 55.45519531 -120.79824219 54.67015625 -120.11425781 53.86132812 C-109.53668937 41.68050531 -97.88043951 31.62914544 -84.12597656 23.24023438 C-83.53816406 22.87559082 -82.95035156 22.51094727 -82.34472656 22.13525391 C-57.4738235 6.8060617 -29.02302659 0.07180955 0 0 Z M-69.12597656 28.24023438 C-69.71668945 28.5507373 -70.30740234 28.86124023 -70.91601562 29.18115234 C-86.20345205 37.29461928 -100.16593438 47.77569618 -111.12597656 61.24023438 C-111.87492188 62.14 -112.62386719 63.03976562 -113.39550781 63.96679688 C-131.36553005 86.3232025 -140.28607828 111.88260569 -147.62597656 139.24023438 C-148.78990757 143.57431004 -149.9563389 147.90769537 -151.12597656 152.24023438 C-151.46371094 153.49320313 -151.80144531 154.74617187 -152.14941406 156.03710938 C-161.9638262 190.0724102 -179.54545619 219.72579644 -210.85498047 237.44140625 C-218.11115643 241.42425386 -225.5117595 244.58195335 -233.50097656 246.74023438 C-238.64136103 248.20301259 -242.44772668 250.40056589 -245.25488281 255.15039062 C-247.67592307 260.9587159 -246.26600641 266.60319361 -244.12597656 272.30273438 C-238.99443364 283.50399704 -230.27524506 288.77794014 -219.12597656 293.24023438 C-215.57446099 294.01230298 -212.19325968 294.37822108 -208.56347656 294.36523438 C-207.47873047 294.36910156 -207.47873047 294.36910156 -206.37207031 294.37304688 C-203.88622029 294.22605748 -201.55475193 293.77806512 -199.12597656 293.24023438 C-199.21298828 294.69042969 -199.21298828 294.69042969 -199.30175781 296.16992188 C-199.68197185 307.14181254 -197.99225866 314.30945898 -190.43847656 322.55273438 C-180.79137457 331.49658968 -167.59386837 334.95174834 -154.64550781 334.66992188 C-147.35387792 333.77971179 -139.45165264 331.57971073 -132.97363281 328.07617188 C-130.42077123 326.92117742 -128.89015486 326.706643 -126.12597656 327.24023438 C-124.28222656 329.65429688 -124.28222656 329.65429688 -122.62597656 332.86523438 C-118.7869014 340.19931664 -114.3408196 345.55532154 -107.62597656 350.30273438 C-107.0172168 350.73392578 -106.40845703 351.16511719 -105.78125 351.609375 C-93.36349352 360.09323757 -79.72297393 362.63101926 -64.93847656 362.55273438 C-63.83640869 362.54781982 -62.73434082 362.54290527 -61.59887695 362.5378418 C-53.07498348 362.41577679 -45.36461266 361.54554081 -37.12597656 359.24023438 C-36.00191406 358.94632813 -34.87785156 358.65242188 -33.71972656 358.34960938 C-7.30403893 350.78614326 18.38398274 338.55077236 42.87402344 326.24023438 C42.44089844 324.97179687 42.44089844 324.97179687 41.99902344 323.67773438 C41.62777344 322.54335938 41.25652344 321.40898438 40.87402344 320.24023438 C40.50277344 319.16773438 40.13152344 318.09523438 39.74902344 316.99023438 C37.84774367 308.84189253 38.95562432 301.29065923 40.87402344 293.24023438 C40.1328125 293.63855469 39.39160156 294.036875 38.62792969 294.44726562 C21.73779177 302.94401799 2.81836522 304.54573073 -15.55175781 300.18945312 C-18.15229895 299.23052824 -19.38715179 298.3588707 -21.12597656 296.24023438 C-19.97097656 296.40523437 -18.81597656 296.57023437 -17.62597656 296.74023438 C4.34456562 299.12383093 28.61180694 296.01732731 46.43701172 282.01220703 C56.89856671 273.39925454 63.81490055 264.24481765 67.87402344 251.24023438 C68.40962891 249.81517578 68.40962891 249.81517578 68.95605469 248.36132812 C71.50464334 239.69612672 70.69334678 229.89601277 67.20605469 221.61523438 C63.89894133 215.71868036 59.19698052 211.66179241 52.87402344 209.24023438 C48.06405244 208.22872577 43.33453039 208.04799284 38.43652344 208.05273438 C37.65462646 208.05281494 36.87272949 208.05289551 36.06713867 208.05297852 C27.70215648 208.13341918 18.84908995 208.58187887 10.87402344 211.24023438 C1.25183133 211.8833629 -6.85654888 211.53362668 -15.12597656 206.36523438 C-17.39069192 203.95897431 -17.85482388 202.4940666 -18.12597656 199.24023438 C-17.46597656 198.91023437 -16.80597656 198.58023438 -16.12597656 198.24023438 C-15.79597656 199.23023438 -15.46597656 200.22023438 -15.12597656 201.24023438 C-9.09252526 205.90244675 -2.6487156 206.72168967 4.87402344 206.24023438 C12.26757869 204.46932294 17.90568712 201.32410275 22.60449219 195.31054688 C24.4356928 192.32428125 25.22994204 189.67533517 25.87402344 186.24023438 C27.71777344 186.43945312 27.71777344 186.43945312 29.87402344 187.24023438 C31.21777344 189.38476563 31.21777344 189.38476563 32.37402344 192.05273438 C34.04281264 195.8695259 35.55402095 198.64556103 38.87402344 201.24023438 C41.601131 201.90073757 41.601131 201.90073757 44.56152344 201.92773438 C48.34991996 202.10286706 51.9532837 202.39845525 55.68652344 203.05273438 C60.47263878 203.6466319 63.00468696 201.95700254 66.87402344 199.24023438 C66.27079109 202.6183355 64.97210289 204.5627925 62.87402344 207.24023438 C63.42832031 207.72234375 63.98261719 208.20445312 64.55371094 208.70117188 C65.27816406 209.3328125 66.00261719 209.96445312 66.74902344 210.61523438 C67.46832031 211.24171875 68.18761719 211.86820313 68.92871094 212.51367188 C70.28168324 213.71450271 71.59485794 214.96106887 72.87402344 216.24023438 C77.12695922 207.25923393 81.04179858 198.18213095 84.79586792 188.98449707 C85.70838168 186.74919011 86.62489641 184.51555689 87.54223633 182.28222656 C90.22790961 175.73861366 92.89980937 169.18984547 95.53808594 162.62695312 C108.82756735 129.59998711 108.82756735 129.59998711 120.00292969 123.54492188 C124.53606748 121.71048387 128.99172371 121.90978974 133.81152344 122.05273438 C135.1234668 122.07303711 135.1234668 122.07303711 136.46191406 122.09375 C138.5995543 122.12879328 140.73687327 122.18258897 142.87402344 122.24023438 C136.95103254 89.27602031 118.74382722 60.40175153 91.87402344 40.24023438 C90.87757813 39.49 89.88113281 38.73976563 88.85449219 37.96679688 C43.50472976 5.19865781 -19.96132899 2.1953467 -69.12597656 28.24023438 Z " fill="#331957" transform="translate(506.1259765625,274.759765625)"/>
<path d="M0 0 C0.99 0.495 0.99 0.495 2 1 C-1.12045937 3.56364878 -4.31448924 5.92532583 -7.65478516 8.19384766 C-43.46922039 32.78513884 -61.19575488 70.73713597 -69.52685547 112.44628906 C-70.24928234 116.34545579 -70.81297591 120.26262099 -71.375 124.1875 C-76.56974123 159.6185906 -89.99869845 195.343728 -118 219 C-125.45288698 224.54046421 -133.87676832 228.04974137 -142.67114258 230.83569336 C-147.147037 232.33067719 -149.5203568 233.96351752 -152 238 C-152.08686323 242.16943486 -151.30519484 243.64785211 -148.5625 246.8125 C-144.68530305 250.12230227 -142.82833711 250.02209625 -137.8125 250.0625 C-132.94849892 250.41223459 -130.18822858 250.8882565 -126.8125 254.5 C-124.15546682 258.14281208 -123.1039517 261.49764079 -122.37109375 265.90234375 C-121.36506586 271.58904876 -118.37803396 275.10881408 -114.02734375 278.61328125 C-105.26831987 284.60452109 -94.92967881 286.43608356 -84.51953125 284.55078125 C-83.30330078 284.27814453 -83.30330078 284.27814453 -82.0625 284 C-73.92998774 282.22540156 -65.40613094 281.66955567 -58 286 C-55.18560811 288.17833932 -52.61235377 290.58630431 -50 293 C-36.92738774 304.33602908 -23.04316044 308.12881727 -6 307 C4.56800128 305.78570179 13.90768503 301.3264681 23 296 C24.51816358 292.96367283 24.49607651 291.41052601 24 288 C21.90717817 284.78954557 19.46488279 281.92774539 17 279 C14.73381549 275.60072323 14.77401205 273.9088229 15.39453125 269.9375 C16.38752195 266.75992977 18.17725167 265.60383428 21 264 C24.28518987 263.19103636 27.3973723 262.86317954 30.7734375 262.7890625 C41.8470537 262.46683802 52.23002581 261.77692714 63 259 C64.05832031 258.73445313 65.11664062 258.46890625 66.20703125 258.1953125 C83.47771239 253.38252096 102.3289971 244.79941917 112 229 C115.28101396 222.86783754 117.5880847 216.80286462 119 210 C119.33 210 119.66 210 120 210 C120.04898437 211.07378906 120.09796875 212.14757812 120.1484375 213.25390625 C120.22353398 214.69012642 120.29907876 216.12632319 120.375 217.5625 C120.42140625 218.61920898 120.42140625 218.61920898 120.46875 219.69726562 C120.66906548 223.31963729 121.05560461 226.17364894 122.17578125 229.671875 C123.44164793 234.78333667 121.54319108 237.36498221 119.0859375 241.8125 C107.9998062 258.75310513 91.40724441 268.9599745 71.78515625 273.44140625 C59.79427881 275.84630874 47.08295824 275.72613689 35 274 C38.93375325 278.7930031 45.17978134 279.11705661 51 280 C67.34423367 281.25467505 82.51881906 278.78206072 97 271 C96.855625 271.60585938 96.71125 272.21171875 96.5625 272.8359375 C94.589702 281.74092845 93.94838643 289.35761085 97.24609375 297.9921875 C97.99095544 299.9759124 98.52360517 301.93716414 99 304 C10.01627731 350.28214488 10.01627731 350.28214488 -33.5625 337.25390625 C-47.22587642 332.26987917 -58.73166524 324.87733908 -66 312 C-66.61681641 310.95005859 -66.61681641 310.95005859 -67.24609375 309.87890625 C-68.18484617 308.26451194 -69.0960194 306.63411877 -70 305 C-76.43297458 305.57181996 -81.98646731 307.72921825 -88 310 C-100.22877272 314.52917508 -113.55940244 312.06098796 -125.1875 306.875 C-132.63752179 302.86806397 -139.28314155 296.66106376 -142.42578125 288.68359375 C-143.66721826 282.88177588 -143.27950284 276.89285154 -143 271 C-144.10601562 271.24169922 -144.10601562 271.24169922 -145.234375 271.48828125 C-156.96389809 273.65857436 -167.19308689 270.48965594 -177 264 C-184.51918734 258.28082185 -188.8311555 250.7751606 -190.44140625 241.44140625 C-190.7153382 236.20135308 -189.54654083 233.01319094 -186 229 C-181.95252875 225.96870238 -178.59727033 224.42381328 -173.6875 223.3125 C-147.9325006 216.37008473 -126.30292803 196.9779424 -112.90625 174.4375 C-106.97490058 163.74162399 -102.54964752 152.6365115 -98.68481445 141.04760742 C-98.22316633 139.66727129 -97.75274621 138.28984188 -97.27416992 136.9152832 C-95.48804323 131.72739971 -94.03172873 126.49325976 -92.65454102 121.18310547 C-87.52709792 101.41962953 -82.06251784 81.8730841 -72 64 C-71.65356445 63.36803711 -71.30712891 62.73607422 -70.95019531 62.08496094 C-65.622518 52.41910173 -59.33346004 44.21930612 -52 36 C-51.38382813 35.25105469 -50.76765625 34.50210938 -50.1328125 33.73046875 C-38.00119683 19.01580572 -18.1460584 6.04868613 0 0 Z " fill="#DECFF2" transform="translate(450,297)"/>
<path d="M0 0 C4.2552939 1.17840994 8.21375644 2.84680363 12.25 4.625 C14.45389145 5.55205564 16.6583183 6.47783952 18.86328125 7.40234375 C19.91854004 7.85206543 20.97379883 8.30178711 22.06103516 8.76513672 C25.81741493 10.34345279 29.61200544 11.78713535 33.4375 13.1875 C34.65953125 13.64382813 35.8815625 14.10015625 37.140625 14.5703125 C39.20226972 15.33720972 41.26616511 16.09655446 43.33398438 16.84667969 C45.78987734 17.73964315 48.23878643 18.65006004 50.6875 19.5625 C51.44281006 19.83151123 52.19812012 20.10052246 52.97631836 20.37768555 C57.66433474 22.14343971 60.71135747 24.06492583 64 28 C66.06743755 33.10778689 64.1903106 37.07857754 62.203125 41.9140625 C60.92122177 45.0203203 60.92122177 45.0203203 60.109375 48.4609375 C59.08277805 52.0866172 58.12398747 54.87831486 56 58 C52.50026756 59.66530019 49.23591849 60.42754338 45.4453125 61.20703125 C37.57640389 63.01812926 32.85960824 68.54497183 28.609375 75.14453125 C23.20481849 84.7336837 21.56158235 92.92977165 21.5 103.8125 C21.49045288 105.26209106 21.49045288 105.26209106 21.48071289 106.7409668 C21.57812171 112.21703643 22.27983572 116.82132091 24.26367188 121.9362793 C26.00879402 126.82736599 26.19694646 129.46706326 24.0078125 134.25390625 C23.32730835 135.76936035 23.32730835 135.76936035 22.63305664 137.31542969 C22.13539795 138.38696289 21.63773926 139.45849609 21.125 140.5625 C20.62411865 141.66625977 20.1232373 142.77001953 19.60717773 143.90722656 C18.57786521 146.17429106 17.54357877 148.43910367 16.50439453 150.70166016 C15.10848576 153.76214824 13.74721251 156.83477721 12.40234375 159.91796875 C12.0057959 160.821521 11.60924805 161.72507324 11.20068359 162.65600586 C10.46124652 164.34123085 9.72567072 166.02815726 8.99462891 167.71704102 C4.54356253 177.72821874 4.54356253 177.72821874 0 180 C-1.54023996 180.06950541 -3.08334988 180.08452357 -4.625 180.0625 C-5.44226563 180.05347656 -6.25953125 180.04445313 -7.1015625 180.03515625 C-8.04128906 180.01775391 -8.04128906 180.01775391 -9 180 C-9 179.34 -9 178.68 -9 178 C-10.19625 177.938125 -11.3925 177.87625 -12.625 177.8125 C-18.27936448 177.19808874 -23.29880698 175.23645262 -28.6015625 173.2578125 C-33.63689184 171.39416187 -38.7579267 169.92288986 -43.91943359 168.45361328 C-69.94605364 161.02684035 -69.94605364 161.02684035 -74 154 C-74.39292962 148.37582828 -73.69950038 143.96551946 -71.6875 138.6875 C-71.28990479 137.60480835 -71.28990479 137.60480835 -70.88427734 136.50024414 C-67.54905815 127.56100578 -63.87236133 118.75188889 -60.2421875 109.9296875 C-57.87754673 104.17844498 -55.55737437 98.41036804 -53.2578125 92.6328125 C-52.93313492 91.81715317 -52.60845734 91.00149384 -52.27394104 90.16111755 C-51.60499187 88.48018332 -50.93609294 86.79922911 -50.26724243 85.11825562 C-44.03726125 69.46583207 -37.68095889 53.87326318 -31.13574219 38.34985352 C-30.55764175 36.97554974 -29.97983776 35.60112122 -29.40234375 34.2265625 C-29.12270782 33.56234787 -28.8430719 32.89813324 -28.55496216 32.21379089 C-27.02668829 28.5557473 -25.56021471 24.8811614 -24.15283203 21.17480469 C-23.84551651 20.36755951 -23.53820099 19.56031433 -23.22157288 18.72860718 C-22.63651309 17.18209101 -22.05795395 15.63309297 -21.48728943 14.08120728 C-17.12540858 2.53532782 -12.45839544 -1.33352327 0 0 Z " fill="#8291E9" transform="translate(650,422)"/>
<path d="M0 0 C4.2552939 1.17840994 8.21375644 2.84680363 12.25 4.625 C14.45389145 5.55205564 16.6583183 6.47783952 18.86328125 7.40234375 C20.44616943 8.07692627 20.44616943 8.07692627 22.06103516 8.76513672 C25.81741493 10.34345279 29.61200544 11.78713535 33.4375 13.1875 C34.65953125 13.64382813 35.8815625 14.10015625 37.140625 14.5703125 C39.20226972 15.33720972 41.26616511 16.09655446 43.33398438 16.84667969 C45.78987734 17.73964315 48.23878643 18.65006004 50.6875 19.5625 C51.44281006 19.83151123 52.19812012 20.10052246 52.97631836 20.37768555 C57.66433474 22.14343971 60.71135747 24.06492583 64 28 C66.06743755 33.10778689 64.1903106 37.07857754 62.203125 41.9140625 C60.92122177 45.0203203 60.92122177 45.0203203 60.109375 48.4609375 C59.08277805 52.0866172 58.12398747 54.87831486 56 58 C52.49560761 59.66751757 49.25544401 60.42413863 45.453125 61.171875 C41.21575743 62.18807627 38.86304365 63.97472406 35.60546875 66.74609375 C33.49858667 68.39161479 31.62565605 68.70826044 29 69 C28.37939697 69.32210449 27.75879395 69.64420898 27.11938477 69.97607422 C24.913828 71.04163177 23.26333687 71.38079802 20.83984375 71.6328125 C19.65612183 71.75873779 19.65612183 71.75873779 18.44848633 71.88720703 C17.61986084 71.96567871 16.79123535 72.04415039 15.9375 72.125 C15.09147217 72.20991699 14.24544434 72.29483398 13.3737793 72.38232422 C7.23917066 72.96534372 1.1630334 73.24929124 -5 73 C-5.13535156 72.38253906 -5.27070312 71.76507813 -5.41015625 71.12890625 C-8.14192528 60.381767 -15.84077609 50.81349335 -25.0625 44.61328125 C-26.67708363 43.6855467 -28.33444984 42.83277508 -30 42 C-29.67958717 35.48493906 -28.24805882 30.8776924 -25.39453125 25.0390625 C-23.34276592 20.56770837 -21.8470603 15.93035254 -20.30859375 11.26171875 C-16.05407639 0.65717547 -10.80988092 -1.15706936 0 0 Z " fill="#9DE07E" transform="translate(650,422)"/>
<path d="M0 0 C7.16106668 2.48214872 14.20269472 5.26199154 21.24926758 8.04956055 C24.44126569 9.30788015 27.63411922 10.56401224 30.82739258 11.8190918 C31.60298523 12.12440323 32.37857788 12.42971466 33.17767334 12.74427795 C37.59172219 14.4755851 42.02014372 16.14786183 46.48364258 17.7487793 C47.4369043 18.09392578 48.39016602 18.43907227 49.37231445 18.79467773 C51.04542309 19.39488214 52.72344482 19.98168327 54.4074707 20.55053711 C60.66580254 22.81459679 66.49083067 26.48936187 69.95629883 32.3359375 C71.06342327 35.07750213 71.01373771 37.4798884 70.99926758 40.42456055 C71.00700195 42.00624023 71.00700195 42.00624023 71.01489258 43.61987305 C70.74926758 46.29956055 70.74926758 46.29956055 68.74926758 48.29956055 C68.6197168 47.30375977 68.6197168 47.30375977 68.48754883 46.2878418 C67.80917686 42.02467851 67.23263535 38.97334593 64.68676758 35.42456055 C57.75376414 30.40919636 49.15500061 27.87113012 41.18676758 24.92456055 C39.0461352 24.12770538 36.9055102 23.33083036 34.76489258 22.53393555 C33.73170898 22.15043945 32.69852539 21.76694336 31.6340332 21.37182617 C28.5270942 20.21697884 25.42380246 19.05280704 22.32226562 17.88354492 C20.44703545 17.17842147 18.56885716 16.4811548 16.69067383 15.78393555 C13.74543123 14.68599145 10.82260611 13.53852768 7.90161133 12.37768555 C6.22587712 11.7265228 4.55009656 11.07547935 2.87426758 10.42456055 C2.11331787 10.11373535 1.35236816 9.80291016 0.56835938 9.48266602 C-5.04418936 7.32928992 -10.24726503 6.59689186 -16.25073242 7.29956055 C-26.73476062 12.04704501 -30.11835654 25.76622603 -34.12573242 35.73706055 C-34.80742302 37.41739892 -35.48973406 39.09748569 -36.17260742 40.77734375 C-38.10456535 45.53653121 -40.02610086 50.29987107 -41.94592285 55.06396484 C-43.83102414 59.73853634 -45.72156056 64.41090537 -47.61160278 69.08348083 C-53.84030146 84.48253257 -60.05465439 99.88735164 -66.25073242 115.29956055 C-66.62979736 116.24208679 -67.0088623 117.18461304 -67.39941406 118.15570068 C-71.92871457 129.42379716 -76.38320245 140.71781558 -80.75073242 152.04956055 C-81.2922897 153.45194655 -81.83395632 154.85429032 -82.37573242 156.2565918 C-83.66864523 159.60376799 -84.96012932 162.95149299 -86.25073242 166.29956055 C-85.59073242 166.29956055 -84.93073242 166.29956055 -84.25073242 166.29956055 C-83.92202148 167.18708008 -83.92202148 167.18708008 -83.58666992 168.0925293 C-83.11100586 169.27782227 -83.11100586 169.27782227 -82.62573242 170.48706055 C-82.3240918 171.26436523 -82.02245117 172.04166992 -81.71166992 172.8425293 C-77.21107384 180.41171361 -69.85054037 182.1369582 -61.87573242 184.61206055 C-60.75811523 184.97106445 -59.64049805 185.33006836 -58.48901367 185.69995117 C-55.74661015 186.57892666 -53.00081486 187.44497737 -50.25073242 188.29956055 C-50.34394775 188.92024414 -50.43716309 189.54092773 -50.53320312 190.18041992 C-50.64237061 190.99317383 -50.75153809 191.80592773 -50.86401367 192.64331055 C-50.977854 193.44961914 -51.09169434 194.25592773 -51.20898438 195.08666992 C-51.47696104 197.5154701 -51.47696104 197.5154701 -49.43823242 199.79956055 C-46.31651868 201.94016426 -44.56369455 202.45626858 -40.81323242 202.48706055 C-40.03077148 202.50124023 -39.24831055 202.51541992 -38.44213867 202.5300293 C-35.95867255 202.44042119 -35.95867255 202.44042119 -33.25073242 200.29956055 C-32.51729814 197.23399457 -32.51729814 197.23399457 -32.25073242 194.29956055 C-20.85152458 197.01916851 -20.85152458 197.01916851 -15.50073242 198.98706055 C-9.5272945 201.01049537 -4.67161368 201.22345057 1.12426758 198.36206055 C2.33942872 197.68670206 3.54903409 197.00110547 4.74926758 196.29956055 C5.40926758 195.96956055 6.06926758 195.63956055 6.74926758 195.29956055 C4.99624354 202.3116567 0.81433349 208.3334945 -5.25073242 212.29956055 C-14.67183091 215.23400106 -21.79882457 214.1453052 -31.06323242 211.17456055 C-32.08078613 210.85688721 -33.09833984 210.53921387 -34.14672852 210.21191406 C-40.96810456 208.06907622 -47.74980598 205.81472828 -54.5168457 203.50683594 C-61.30252126 201.21921182 -68.176951 199.2726918 -75.08520508 197.39111328 C-83.5564492 195.04892832 -92.63038482 192.47845769 -97.35620117 184.4128418 C-101.25651979 175.09236209 -98.74307819 166.46501922 -95.28588867 157.47924805 C-92.95927229 152.19675248 -89.25284398 148.85052414 -85.00463867 145.0300293 C-77.14480054 137.2370834 -70.51166227 124.35231693 -70.19165039 113.24975586 C-70.20806541 111.74560432 -70.22459138 110.24145398 -70.24121094 108.73730469 C-70.29415362 95.18262074 -65.20280218 84.03040182 -59.74598694 71.90298462 C-56.80163433 65.35587118 -54.11719175 58.7091178 -51.43823242 52.04956055 C-50.53024691 49.81743616 -49.62142313 47.58565255 -48.71166992 45.35424805 C-47.23132824 41.71615852 -45.75670734 38.07589532 -44.28979492 34.43237305 C-42.64946355 30.37098874 -40.96428915 26.3305361 -39.25073242 22.29956055 C-38.94071289 21.55963867 -38.63069336 20.8197168 -38.3112793 20.05737305 C-30.17564389 0.8423932 -21.35770515 -6.8737267 0 0 Z " fill="#6981D8" transform="translate(653.250732421875,407.700439453125)"/>
<path d="M0 0 C2.014568 1.47861689 3.68738919 3.000447 5.3828125 4.83203125 C6.1459375 5.57453125 6.9090625 6.31703125 7.6953125 7.08203125 C12.07411764 14.21786186 13.43806375 22.16005579 11.9140625 30.3515625 C8.8208858 43.22138697 2.54661036 55.35856472 -8.7421875 62.76953125 C-14.1677241 66.01786754 -19.19457898 67.08555387 -25.4921875 66.95703125 C-26.64460937 66.93898438 -27.79703125 66.9209375 -28.984375 66.90234375 C-29.85320313 66.87914062 -30.72203125 66.8559375 -31.6171875 66.83203125 C-32.0090625 65.71828125 -32.4009375 64.60453125 -32.8046875 63.45703125 C-34.05449349 60.07836912 -35.55997129 56.95355207 -37.2421875 53.76953125 C-39.30273503 49.69793884 -40.37428101 46.44725458 -40.6171875 41.83203125 C-40.66746094 41.03410156 -40.71773437 40.23617187 -40.76953125 39.4140625 C-41.20924155 27.22529302 -38.45867834 16.3415927 -30.6171875 6.83203125 C-22.56711498 -0.77505815 -10.64343024 -4.74982931 0 0 Z " fill="#FBFBFC" transform="translate(720.6171875,490.16796875)"/>
<path d="M0 0 C5.40229764 3.15134029 9.09583027 8.02082411 11.06640625 13.95703125 C12.51992534 22.20383955 12.13608169 29.65503549 7.92578125 36.97265625 C4.4278796 41.88440791 -0.04256278 44.69209634 -5.5625 47.0625 C-13.29089553 48.08275023 -21.03888497 48.17952567 -27.6953125 43.74609375 C-33.99303212 38.06760597 -37.0990253 31.06802675 -37.875 22.6875 C-37.1210394 13.94155703 -33.98021422 8.03528866 -27.5625 2.0625 C-20.06717882 -4.18360098 -8.71358716 -3.80229258 0 0 Z " fill="#331953" transform="translate(485.5625,369.9375)"/>
<path d="M0 0 C2.48408885 2.07677873 4.24070522 4.29523387 6 7 C6.61875 7.86625 7.2375 8.7325 7.875 9.625 C10.46956134 17.40868403 9.91411056 24.9554723 6.625 32.4375 C3.23771575 38.37114178 -0.42675722 41.92968731 -7 44 C-14.09864662 45.08977091 -20.831548 45.32440155 -27.125 41.5 C-31.99441326 37.63203211 -35.0466677 32.85999689 -37 27 C-37.61095922 17.64762423 -37.3784662 11.18835881 -32.25 3.3125 C-23.11467413 -6.07658493 -11.09091123 -5.78287573 0 0 Z " fill="#331A54" transform="translate(603,374)"/>
<path d="M0 0 C3.19326453 2.99973335 4.42773522 5.25587335 4.6875 9.5625 C4.56351636 15.21615388 2.33159496 18.12678994 -1.609375 22.01953125 C-8.16657553 27.42152028 -14.27902517 28.61014401 -22.71875 28.32421875 C-30.27375833 27.41651751 -36.69070266 24.44023867 -41.9375 18.9375 C-44.68932015 14.32154362 -45.59248562 10.41009879 -44.765625 5.15234375 C-43.1295022 0.77648701 -39.81155939 -1.6574402 -35.9375 -4.0625 C-24.16660421 -8.89697506 -10.22099364 -7.17644234 0 0 Z " fill="#371C57" transform="translate(553.9375,417.0625)"/>
<path d="M0 0 C7.16106668 2.48214872 14.20269472 5.26199154 21.24926758 8.04956055 C24.44126569 9.30788015 27.63411922 10.56401224 30.82739258 11.8190918 C31.60298523 12.12440323 32.37857788 12.42971466 33.17767334 12.74427795 C37.59172219 14.4755851 42.02014372 16.14786183 46.48364258 17.7487793 C47.91353516 18.26649902 47.91353516 18.26649902 49.37231445 18.79467773 C51.04542309 19.39488214 52.72344482 19.98168327 54.4074707 20.55053711 C60.66580254 22.81459679 66.49083067 26.48936187 69.95629883 32.3359375 C71.06342327 35.07750213 71.01373771 37.4798884 70.99926758 40.42456055 C71.00700195 42.00624023 71.00700195 42.00624023 71.01489258 43.61987305 C70.74926758 46.29956055 70.74926758 46.29956055 68.74926758 48.29956055 C68.6197168 47.30375977 68.6197168 47.30375977 68.48754883 46.2878418 C67.80917686 42.02467851 67.23263535 38.97334593 64.68676758 35.42456055 C57.75376414 30.40919636 49.15500061 27.87113012 41.18676758 24.92456055 C39.0461352 24.12770538 36.9055102 23.33083036 34.76489258 22.53393555 C33.73170898 22.15043945 32.69852539 21.76694336 31.6340332 21.37182617 C28.5270942 20.21697884 25.42380246 19.05280704 22.32226562 17.88354492 C20.44703545 17.17842147 18.56885716 16.4811548 16.69067383 15.78393555 C13.74543123 14.68599145 10.82260611 13.53852768 7.90161133 12.37768555 C6.22587712 11.7265228 4.55009656 11.07547935 2.87426758 10.42456055 C2.11331787 10.11373535 1.35236816 9.80291016 0.56835938 9.48266602 C-5.04418936 7.32928992 -10.24726503 6.59689186 -16.25073242 7.29956055 C-24.35571113 10.96973958 -27.68250034 19.70579941 -30.81713867 27.55737305 C-31.13302444 28.33139465 -31.44891022 29.10541626 -31.77436829 29.90289307 C-32.79434131 32.40733 -33.80374852 34.91587981 -34.81323242 37.42456055 C-35.51911657 39.16131935 -36.2256662 40.89780781 -36.93286133 42.6340332 C-40.29625578 50.90676406 -43.61496809 59.19667842 -46.89526367 67.50268555 C-47.1738472 68.20630219 -47.45243073 68.90991882 -47.73945618 69.63485718 C-49.04275081 72.92712283 -50.33897798 76.22175181 -51.62011719 79.52270508 C-52.07314209 80.67367676 -52.52616699 81.82464844 -52.99291992 83.01049805 C-53.38334473 84.01387207 -53.77376953 85.01724609 -54.17602539 86.05102539 C-55.25073242 88.29956055 -55.25073242 88.29956055 -57.25073242 89.29956055 C-57.04577148 88.6240918 -56.84081055 87.94862305 -56.62963867 87.25268555 C-56.36022461 86.3606543 -56.09081055 85.46862305 -55.81323242 84.54956055 C-55.54639648 83.6678418 -55.27956055 82.78612305 -55.00463867 81.87768555 C-54.63145508 80.60151367 -54.63145508 80.60151367 -54.25073242 79.29956055 C-54.03288086 78.5725293 -53.8150293 77.84549805 -53.59057617 77.09643555 C-53.04516997 75.20598529 -53.04516997 75.20598529 -54.25073242 73.29956055 C-53.6015625 71.21166992 -53.6015625 71.21166992 -52.52026367 68.64331055 C-52.1290332 67.70229492 -51.73780273 66.7612793 -51.3347168 65.79174805 C-50.91512695 64.80432617 -50.49553711 63.8169043 -50.06323242 62.79956055 C-49.25688144 60.87262841 -48.45088981 58.94554585 -47.64526367 57.01831055 C-47.2456543 56.06827148 -46.84604492 55.11823242 -46.43432617 54.1394043 C-44.95841743 50.59819751 -43.53130917 47.03886931 -42.11523438 43.47338867 C-38.60967331 34.65850144 -38.60967331 34.65850144 -36.25073242 32.29956055 C-35.60820892 30.23082021 -35.60820892 30.23082021 -35.25073242 28.29956055 C-38.22073242 29.78456055 -38.22073242 29.78456055 -41.25073242 31.29956055 C-40.0849608 25.03743929 -38.34176153 19.43480014 -35.62573242 13.67456055 C-35.27816895 12.93399414 -34.93060547 12.19342773 -34.57250977 11.43041992 C-26.91843545 -4.06332368 -15.43148997 -4.96644391 0 0 Z " fill="#71A0DF" transform="translate(653.250732421875,407.700439453125)"/>
<path d="M0 0 C0.99 0 1.98 0 3 0 C3.30292969 0.85722656 3.60585938 1.71445312 3.91796875 2.59765625 C8.22171565 14.86991021 8.22171565 14.86991021 17.875 22.8125 C21.84936169 24.62119155 25.75710243 25.98539406 30 27 C30 28.32 30 29.64 30 31 C29.18015625 31.32613281 28.3603125 31.65226562 27.515625 31.98828125 C26.43796875 32.42527344 25.3603125 32.86226563 24.25 33.3125 C23.18265625 33.74175781 22.1153125 34.17101562 21.015625 34.61328125 C18.32763365 35.84933945 16.3265215 37.21318957 14 39 C13.34 39 12.68 39 12 39 C11.7215625 39.55816406 11.443125 40.11632812 11.15625 40.69140625 C10.36872331 42.26379907 9.57687959 43.83403542 8.78125 45.40234375 C8.3584375 46.23894531 7.935625 47.07554687 7.5 47.9375 C7.0771875 48.77152344 6.654375 49.60554688 6.21875 50.46484375 C5.02861707 52.94047282 3.98976252 55.43853126 3 58 C2.01 58 1.02 58 0 58 C-0.4846875 56.91460937 -0.969375 55.82921875 -1.46875 54.7109375 C-7.59116814 41.45161731 -13.43966834 36.63352014 -27 31 C-26.86328125 29.1640625 -26.86328125 29.1640625 -26 27 C-23.41796875 25.5859375 -23.41796875 25.5859375 -20.1875 24.375 C-12.58605122 21.91274522 -12.58605122 21.91274522 -8 16 C-5.33333333 10.66666667 -2.66666667 5.33333333 0 0 Z " fill="#63B2F2" transform="translate(732,334)"/>
<path d="M0 0 C4.38370524 4.01839647 7.72569525 7.68800285 8.4375 13.6875 C8.37311653 18.11386341 6.80863534 20.42553169 3.74609375 23.5234375 C-2.12626461 28.48932444 -8.06652023 28.59308718 -15.55078125 28.41015625 C-22.15710454 27.62457987 -26.84898273 24.79053758 -31.0625 19.6875 C-33.59663039 15.65393605 -33.59571887 12.69128609 -33 8 C-31.2859023 3.30878525 -29.21145807 0.68001877 -25 -2 C-16.08974662 -5.36235977 -8.18298333 -4.80883111 0 0 Z " fill="#FD92B2" transform="translate(454,415)"/>
<path d="M0 0 C-0.75 4.75 -0.75 4.75 -3 7 C-3.63929469 8.38600963 -4.21789816 9.80038595 -4.76171875 11.2265625 C-6.41295568 15.48836287 -8.1048646 19.72923504 -9.83203125 23.9609375 C-10.57424359 25.80617345 -11.31643834 27.65141753 -12.05639648 29.49755859 C-12.56543977 30.76153755 -13.07854256 32.02388834 -13.59545898 33.28466797 C-14.35144543 35.13084147 -15.09197522 36.98332066 -15.83203125 38.8359375 C-16.27264893 39.92438965 -16.7132666 41.0128418 -17.16723633 42.13427734 C-18.02603171 45.08958084 -17.94538938 46.17127587 -17 49 C-17.7421875 51.3671875 -17.7421875 51.3671875 -18.875 53.875 C-20.07818061 56.55901829 -20.96992485 58.78513322 -21.37890625 61.70703125 C-22.26059335 66.38163644 -24.17206724 70.46270566 -26.0625 74.8125 C-31.78005162 88.22443918 -37.03762847 101.80608297 -42.28930664 115.40551758 C-45.65254783 124.09614353 -49.08932782 132.72379364 -52.86230469 141.24560547 C-53.7982435 143.51154146 -54.50100862 145.60786122 -55 148 C-55.94875 147.979375 -56.8975 147.95875 -57.875 147.9375 C-60.90666283 147.77448174 -60.90666283 147.77448174 -63 149 C-63.79530584 140.18094185 -62.40820731 132.74286413 -58 125 C-55.40031333 122.11191059 -52.63569413 119.51439455 -49.7890625 116.87109375 C-41.88231546 109.1508011 -35.25822929 95.95906233 -34.94091797 84.95019531 C-34.95733299 83.44604377 -34.97385896 81.94189344 -34.99047852 80.43774414 C-35.04337283 66.89544389 -29.96267452 55.75505345 -24.5088501 43.63967896 C-21.48582194 36.91696725 -18.74488325 30.09049079 -16 23.25 C-14.348935 19.16009326 -12.68499747 15.07604512 -11 11 C-10.63471191 10.10740479 -10.26942383 9.21480957 -9.89306641 8.29516602 C-9.54937012 7.48233154 -9.20567383 6.66949707 -8.8515625 5.83203125 C-8.40804443 4.77205933 -8.40804443 4.77205933 -7.95556641 3.69067383 C-7 2 -7 2 -4.375 0.4375 C-2 0 -2 0 0 0 Z " fill="#6C95DE" transform="translate(618,436)"/>
<path d="M0 0 C0.66 0.33 1.32 0.66 2 1 C1.67 1.78375 1.34 2.5675 1 3.375 C-0.60274636 9.18495554 -0.82443507 14.57249674 1.125 20.3125 C3.84079618 24.2051412 6.71140034 27.19589742 11.3125 28.8125 C12.199375 28.874375 13.08625 28.93625 14 29 C14.69351563 29.061875 15.38703125 29.12375 16.1015625 29.1875 C21.68043614 29.48603504 24.48152675 28.52661327 29 25 C29.66 25 30.32 25 31 25 C32.08196777 28.13474223 32.51272087 30.70464838 32 34 C27.19353069 40.54012023 19.94695624 45.33351988 12 47 C7.64141908 47.28541207 3.3591814 47.24597262 -1 47 C-1.391875 45.88625 -1.78375 44.7725 -2.1875 43.625 C-3.43730599 40.24633787 -4.94278379 37.12152082 -6.625 33.9375 C-11.06411523 25.16591495 -11.06245509 14.53885479 -9 5 C-8.67 5 -8.34 5 -8 5 C-8 6.98 -8 8.96 -8 11 C-4.99587837 9.49793919 -4.45358301 6.96530935 -3 4 C-2.03465478 2.64136599 -1.04722851 1.29656863 0 0 Z " fill="#DFD1F1" transform="translate(690,510)"/>
<path d="M0 0 C-0.63816519 3.93572729 -1.84694156 7.22506026 -3.46484375 10.86328125 C-6.25290403 17.22142202 -8.92768477 23.62146707 -11.56640625 30.04296875 C-11.97096039 31.02564728 -12.37551453 32.00832581 -12.79232788 33.02078247 C-14.47486777 37.10843576 -16.15570629 41.1967844 -17.8347168 45.28588867 C-19.07684415 48.30981307 -20.32148073 51.33269546 -21.56640625 54.35546875 C-22.12286583 55.71372017 -22.12286583 55.71372017 -22.69056702 57.09941101 C-25.31570717 63.46798643 -28.11337858 69.74580231 -31 76 C-34.33333333 72.66666667 -37.66666667 69.33333333 -41 66 C-36.45316297 60.06385165 -36.45316297 60.06385165 -34.07324219 59.72851562 C-31.78862527 59.16493492 -31.78862527 59.16493492 -30.59960938 56.81030273 C-30.18517578 55.86098877 -29.77074219 54.9116748 -29.34375 53.93359375 C-28.87839844 52.89009766 -28.41304687 51.84660156 -27.93359375 50.77148438 C-27.46050781 49.67126953 -26.98742187 48.57105469 -26.5 47.4375 C-25.55323168 45.28985798 -24.60533668 43.14271225 -23.65625 40.99609375 C-23.20781738 39.96274902 -22.75938477 38.9294043 -22.29736328 37.86474609 C-21.17964456 35.39667845 -19.95924582 33.05937371 -18.6484375 30.69140625 C-16.69586717 26.87018837 -16.77348598 23.79027372 -17.125 19.5 C-17.29438037 13.42045445 -16.87995444 10.0178508 -12.71484375 5.51953125 C-8.61650682 1.88797529 -5.66520354 -0.66649453 0 0 Z " fill="#E0D6F2" transform="translate(610,415)"/>
<path d="M0 0 C-1.38877354 3.35620271 -2.91677965 5.07298728 -6 7 C-6.66 7 -7.32 7 -8 7 C-7.34 8.32 -6.68 9.64 -6 11 C-6.89203125 11.94101562 -7.7840625 12.88203125 -8.703125 13.8515625 C-12.47405279 18.26571419 -14.55355053 23.043502 -16.75 28.375 C-17.17410156 29.37740723 -17.59820313 30.37981445 -18.03515625 31.41259766 C-23.83899338 45.21811142 -29.32077417 59.15757581 -34.78125 73.1015625 C-35.23628906 74.2560791 -35.69132813 75.4105957 -36.16015625 76.60009766 C-37.03859603 78.82917061 -37.91120555 81.06055193 -38.77734375 83.29443359 C-39.17050781 84.29039551 -39.56367187 85.28635742 -39.96875 86.3125 C-40.48598633 87.63701172 -40.48598633 87.63701172 -41.01367188 88.98828125 C-42 91 -42 91 -44 92 C-43.79503906 91.32453125 -43.59007812 90.6490625 -43.37890625 89.953125 C-43.10949219 89.06109375 -42.84007812 88.1690625 -42.5625 87.25 C-42.29566406 86.36828125 -42.02882813 85.4865625 -41.75390625 84.578125 C-41.38072266 83.30195313 -41.38072266 83.30195313 -41 82 C-40.78214844 81.27296875 -40.56429687 80.5459375 -40.33984375 79.796875 C-39.79443755 77.90642474 -39.79443755 77.90642474 -41 76 C-40.35083008 73.91210938 -40.35083008 73.91210938 -39.26953125 71.34375 C-38.87830078 70.40273438 -38.48707031 69.46171875 -38.08398438 68.4921875 C-37.66439453 67.50476563 -37.24480469 66.51734375 -36.8125 65.5 C-36.00614902 63.57306786 -35.20015739 61.6459853 -34.39453125 59.71875 C-33.99492188 58.76871094 -33.5953125 57.81867188 -33.18359375 56.83984375 C-31.70768501 53.29863696 -30.28057675 49.73930876 -28.86450195 46.17382812 C-25.35894089 37.35894089 -25.35894089 37.35894089 -23 35 C-22.3574765 32.93125966 -22.3574765 32.93125966 -22 31 C-24.97 32.485 -24.97 32.485 -28 34 C-26.83422838 27.73787875 -25.09102911 22.13523959 -22.375 16.375 C-22.02743652 15.63443359 -21.67987305 14.89386719 -21.32177734 14.13085938 C-16.43747017 4.24381099 -10.89902704 -0.17579076 0 0 Z " fill="#74A5E3" transform="translate(640,405)"/>
<path d="M0 0 C0.2578125 0.61617188 0.515625 1.23234375 0.78125 1.8671875 C2.15994345 4.27990104 3.07336605 4.86195692 5.5 6.125 C13.80243756 11.05504489 21.63835331 18.79065162 25 28 C25.35334443 30.33038694 25.68847599 32.66365492 26 35 C30.18249361 34.64379128 34.36308124 34.27097754 38.54272461 33.88305664 C39.96321835 33.75353866 41.38412608 33.6284775 42.80541992 33.50805664 C44.85461907 33.33364144 46.90176828 33.1429703 48.94921875 32.94921875 C50.17987061 32.83924561 51.41052246 32.72927246 52.6784668 32.6159668 C56.10568413 31.98040125 58.06997544 30.7972388 61 29 C61.99 29.33 62.98 29.66 64 30 C62.35 32.64 60.7 35.28 59 38 C58.34 36.68 57.68 35.36 57 34 C47.43 35.32 37.86 36.64 28 38 C29.64475687 42.86908022 29.64475687 42.86908022 32.3125 45.75 C34.2020609 49.38915432 34.1411969 49.90237911 33 53.625 C31.26690046 57.93236872 29.2316857 60.88415715 25 63 C19.66461538 63.45407529 19.66461538 63.45407529 17.34765625 61.87109375 C14.83374665 58.38076709 15.36396812 54.47073541 15.43359375 50.31640625 C16.32106127 45.12013091 19.09233691 42.33603851 23 39 C23.33 38.67 23.66 38.34 24 38 C24 27.56585401 18.55041186 20.43795636 11.5625 13.0625 C7.67428607 9.33462479 3.95456762 7.0719101 -1 5 C-0.67 3.35 -0.34 1.7 0 0 Z " fill="#90D7E6" transform="translate(619,460)"/>
<path d="M0 0 C0.66 0 1.32 0 2 0 C2.23074219 0.51949219 2.46148438 1.03898437 2.69921875 1.57421875 C6.42645692 9.54432092 11.04470521 13.46650678 19 17 C16.72026741 18.75364045 14.4426843 20.34832231 12 21.875 C7.0159694 25.40535501 4.54963211 29.51829096 2 35 C-0.30717595 32.87182908 -1.75284341 30.80904432 -3.25 28.0625 C-5.86527529 23.73815423 -8.46711054 22.13815541 -13 20 C-13.66 19.67 -14.32 19.34 -15 19 C-13.84886009 15.54658028 -13.1068256 15.15357642 -10.1875 13.1875 C-5.28348598 9.65204803 -2.51973851 5.45943343 0 0 Z " fill="#74D5F5" transform="translate(732,346)"/>
<path d="M0 0 C0.66 0 1.32 0 2 0 C2.30292969 0.81984375 2.60585938 1.6396875 2.91796875 2.484375 C3.33691406 3.56203125 3.75585938 4.6396875 4.1875 5.75 C4.79658203 7.35101563 4.79658203 7.35101563 5.41796875 8.984375 C7.48045719 12.91583445 9.90112365 15.1393389 14.01953125 16.828125 C14.61121094 16.96734375 15.20289063 17.1065625 15.8125 17.25 C16.864375 17.4975 17.91625 17.745 19 18 C19 18.99 19 19.98 19 21 C17.96939453 21.27263672 17.96939453 21.27263672 16.91796875 21.55078125 C16.01691406 21.80214844 15.11585938 22.05351562 14.1875 22.3125 C12.84751953 22.67794922 12.84751953 22.67794922 11.48046875 23.05078125 C7.32275883 24.6418419 6.24088817 26.48116395 4.375 30.5 C3.53152465 32.64702815 2.72946423 34.81160732 2 37 C1.34 37 0.68 37 0 37 C-0.13535156 36.41992188 -0.27070313 35.83984375 -0.41015625 35.2421875 C-2.12805528 29.00837426 -4.45319399 25.40669975 -10 22 C-12.6483043 20.77770571 -15.20833254 19.8815792 -18 19 C-15 17 -15 17 -12.66015625 16.02734375 C-7.7148857 13.95256107 -4.65045594 12.41562186 -2.4375 7.375 C-1.92183663 5.92916872 -1.43805543 4.47120503 -1 3 C-0.67 2.01 -0.34 1.02 0 0 Z " fill="#67C7F5" transform="translate(308,382)"/>
<path d="M0 0 C0.66 0 1.32 0 2 0 C2.64633275 1.77065111 3.2920483 3.54152753 3.9375 5.3125 C4.29714844 6.29863281 4.65679688 7.28476562 5.02734375 8.30078125 C5.70885965 10.1920563 6.3642811 12.09284329 7 14 C10.7960081 15.89800405 14.91817126 16.87949799 19 18 C19 18.66 19 19.32 19 20 C18.31292969 20.25394531 17.62585938 20.50789063 16.91796875 20.76953125 C16.01691406 21.11371094 15.11585938 21.45789063 14.1875 21.8125 C13.29417969 22.14894531 12.40085937 22.48539062 11.48046875 22.83203125 C6.91354116 24.98244282 5.56444297 27.53578937 3.8125 32.1875 C3.46832031 33.08855469 3.12414062 33.98960937 2.76953125 34.91796875 C2.51558594 35.60503906 2.26164063 36.29210937 2 37 C1.34 37 0.68 37 0 37 C-0.21914063 36.25234375 -0.43828125 35.5046875 -0.6640625 34.734375 C-2.6560914 28.43088335 -2.6560914 28.43088335 -6.8125 23.4375 C-10.21412174 21.90343529 -13.37638458 20.8696677 -17 20 C-17 19.34 -17 18.68 -17 18 C-16.18015625 17.74347656 -15.3603125 17.48695313 -14.515625 17.22265625 C-8.18366197 15.12802897 -8.18366197 15.12802897 -3.34765625 10.8046875 C-2.35848824 8.54266556 -1.60338019 6.3921243 -1 4 C-0.80792969 3.24847656 -0.61585938 2.49695313 -0.41796875 1.72265625 C-0.28003906 1.15417969 -0.14210938 0.58570313 0 0 Z " fill="#FDD248" transform="translate(688,305)"/>
<path d="M0 0 C0.66 0 1.32 0 2 0 C1.41321366 4.3612498 0.3310165 8.04949955 -1.36328125 12.10546875 C-1.83830078 13.25466797 -2.31332031 14.40386719 -2.80273438 15.58789062 C-3.30095703 16.77576172 -3.79917969 17.96363281 -4.3125 19.1875 C-7.73168056 27.39806207 -11.05034459 35.60761697 -14 44 C-15.423125 43.9690625 -15.423125 43.9690625 -16.875 43.9375 C-19.90666283 43.77448174 -19.90666283 43.77448174 -22 45 C-22.79542826 36.17958441 -21.40641889 28.74432847 -17 21 C-14.36998197 18.01425005 -11.5964117 15.34357811 -8.6640625 12.65625 C-5.36763916 9.36949359 -3.26956997 5.90009938 -1.12109375 1.80078125 C-0.56615234 0.90939453 -0.56615234 0.90939453 0 0 Z " fill="#719DE3" transform="translate(577,540)"/>
<path d="M0 0 C3 1 3 1 3.921875 2.70703125 C4.19515625 3.40183594 4.4684375 4.09664063 4.75 4.8125 C6.90043944 9.49138581 9.39497153 10.87460224 14 13 C14 13.66 14 14.32 14 15 C13.46890625 15.1959375 12.9378125 15.391875 12.390625 15.59375 C7.04092873 17.85858492 4.85858492 20.04092873 2.59375 25.390625 C2.3978125 25.92171875 2.201875 26.4528125 2 27 C1.34 27 0.68 27 0 27 C-1.0078125 25.42578125 -1.0078125 25.42578125 -2.125 23.3125 C-4.56991967 19.16421288 -7.21376662 17.23449676 -11.42578125 15.0078125 C-11.94527344 14.67523438 -12.46476562 14.34265625 -13 14 C-13 13.34 -13 12.68 -13 12 C-11.783125 11.690625 -10.56625 11.38125 -9.3125 11.0625 C-4.47559754 9.3098746 -2.98568989 6.34548539 -0.8125 1.86328125 C-0.544375 1.24839844 -0.27625 0.63351562 0 0 Z " fill="#65AAF1" transform="translate(286,441)"/>
<path d="M0 0 C-0.6583213 4.22753318 -2.08520874 7.78250989 -3.8125 11.6875 C-6.32281083 17.41561421 -8.71899191 23.17672053 -11 29 C-15.14222704 25.07019486 -17.10279329 22.54308461 -17.4375 16.8125 C-17.37326856 11.17848503 -14.86798834 7.90323197 -11 4 C-7.25440628 0.94237247 -4.87830642 -0.5739184 0 0 Z " fill="#F892B4" transform="translate(610,415)"/>
<path d="M0 0 C0.69738281 0.00902344 1.39476562 0.01804687 2.11328125 0.02734375 C3.82566958 0.05080112 5.53788004 0.08666896 7.25 0.125 C7.91 3.425 8.57 6.725 9.25 10.125 C7.98285156 10.07859375 6.71570313 10.0321875 5.41015625 9.984375 C-7.19379229 9.55800384 -7.19379229 9.55800384 -18.75 14.125 C-18.43327951 8.89911192 -15.44889181 5.5640165 -11.75 2.125 C-8.10179472 -0.42625062 -4.27967497 -0.1051716 0 0 Z " fill="#E2D7F3" transform="translate(639.75,386.875)"/>
<path d="M0 0 C2 3 2 3 3.6875 6.0625 C6.5189901 9.65925769 8.58671813 10.15129195 13 11 C12.67 11.99 12.34 12.98 12 14 C10.906875 14.391875 9.81375 14.78375 8.6875 15.1875 C5.27655413 16.47888692 4.15748199 17.92868787 2.5625 21.1875 C2.01928938 22.44893052 1.49057822 23.71718367 1 25 C-1.56981905 23.71509047 -1.673015 22.67466098 -2.75 20.0625 C-4.34628739 16.68248239 -4.67516847 16.14992224 -8.25 14.5 C-9.1575 14.335 -10.065 14.17 -11 14 C-11 13.01 -11 12.02 -11 11 C-10.45730469 10.79246094 -9.91460938 10.58492188 -9.35546875 10.37109375 C-5.32645329 8.63607628 -2.73668287 7.42651051 -1 3.25 C-0.67 2.1775 -0.34 1.105 0 0 Z " fill="#FDBC39" transform="translate(759,437)"/>
<path d="M0 0 C0.66 0 1.32 0 2 0 C1.39906536 6.15289212 -1.06004226 11.51063607 -3.40234375 17.1640625 C-3.84010635 18.23369232 -4.27786896 19.30332214 -4.72889709 20.40536499 C-5.65320923 22.66075205 -6.58047593 24.91493023 -7.51049805 27.16796875 C-8.93432841 30.61731656 -10.34980527 34.0699952 -11.76367188 37.5234375 C-12.66358013 39.71634385 -13.56395492 41.90905881 -14.46484375 44.1015625 C-14.88885971 45.13391022 -15.31287567 46.16625793 -15.7497406 47.22988892 C-16.14677689 48.19123749 -16.54381317 49.15258606 -16.95288086 50.14306641 C-17.30072128 50.98656647 -17.64856171 51.83006653 -18.00694275 52.6991272 C-18.93232284 54.8431948 -19.93261258 56.92357091 -21 59 C-21.33 58.34 -21.66 57.68 -22 57 C-21.07038954 54.43463266 -19.93968652 51.99207227 -18.8125 49.5078125 C-17.77405157 47.11386634 -17.77405157 47.11386634 -18.55737305 45.14648438 C-19.1490445 42.2772205 -18.41141132 40.82717625 -17.26953125 38.1484375 C-16.87830078 37.21386719 -16.48707031 36.27929688 -16.08398438 35.31640625 C-15.66439453 34.34574219 -15.24480469 33.37507813 -14.8125 32.375 C-14.00616766 30.46629059 -13.20017612 28.55743718 -12.39453125 26.6484375 C-11.99500244 25.71112793 -11.59547363 24.77381836 -11.18383789 23.80810547 C-9.39423255 19.56309811 -7.69719294 15.2825642 -6 11 C-2.87510598 3.1251152 -2.87510598 3.1251152 0 0 Z " fill="#88B9EB" transform="translate(618,438)"/>
<path d="M0 0 C0.66 0 1.32 0 2 0 C2.185625 1.11375 2.37125 2.2275 2.5625 3.375 C3.036875 4.57125 3.51125 5.7675 4 7 C7.51400668 8.54086322 7.51400668 8.54086322 11 9 C11 9.99 11 10.98 11 12 C10.236875 12.4125 9.47375 12.825 8.6875 13.25 C4.99016885 15.65756447 4.46934046 17.90131345 3 22 C2.01 22 1.02 22 0 22 C-0.556875 20.88625 -1.11375 19.7725 -1.6875 18.625 C-3.25326802 15.84702448 -3.81895484 15.09463724 -6.75 13.5625 C-7.4925 13.376875 -8.235 13.19125 -9 13 C-9 11.68 -9 10.36 -9 9 C-8.071875 8.62875 -7.14375 8.2575 -6.1875 7.875 C-2.4739697 5.69057041 -1.57312496 3.93281241 0 0 Z " fill="#6AC0F5" transform="translate(683,368)"/>
<path d="M0 0 C3.4375 1.0625 3.4375 1.0625 5.4375 3.25 C6.67490475 6.73020085 6.57967883 8.55981826 5.4375 12.0625 C3.75 14 3.75 14 1.4375 15.0625 C-1.67282079 14.93554813 -3.76328043 14.54203174 -6.4375 12.9375 C-8.26349685 9.89417192 -7.98710581 7.52000445 -7.5625 4.0625 C-5.30850949 0.45611518 -4.2758518 0.07501494 0 0 Z " fill="#F8FCF7" transform="translate(686.5625,458.9375)"/>
<path d="M0 0 C3.625 0.375 3.625 0.375 6.0625 2 C8.09661336 5.09185231 8.23105429 6.73867425 7.625 10.375 C6 12.75 6 12.75 3.625 14.375 C0.46556135 14.82634838 -1.42570882 15.08362581 -4.0390625 13.1328125 C-5.74289719 10.89092475 -5.74723277 9.60156108 -5.6875 6.8125 C-5.68363281 6.02746094 -5.67976562 5.24242187 -5.67578125 4.43359375 C-5.12532111 0.6661588 -3.60182352 0.40020261 0 0 Z " fill="#FAFCF9" transform="translate(646.375,444.625)"/>
<path d="M0 0 C0.66 0 1.32 0 2 0 C2.20625 1.27875 2.4125 2.5575 2.625 3.875 C3.08483533 6.07813968 3.08483533 6.07813968 4 8 C6.99428144 9.61147442 6.99428144 9.61147442 10 10 C10 10.66 10 11.32 10 12 C9.071875 12.598125 8.14375 13.19625 7.1875 13.8125 C3.98984498 16.00696913 2.70653139 17.58693721 1 21 C-0.8563973 19.1436027 -2.68885543 17.2767018 -4.5 15.375 C-6.83688754 12.8187374 -6.83688754 12.8187374 -10 12 C-10 11.34 -10 10.68 -10 10 C-8.906875 9.649375 -7.81375 9.29875 -6.6875 8.9375 C-3.53564713 7.62316459 -2.37683541 6.46435287 -1.0625 3.3125 C-0.711875 2.219375 -0.36125 1.12625 0 0 Z " fill="#FC9C3D" transform="translate(264,472)"/>
<path d="M0 0 C2.9375 2.625 2.9375 2.625 5 6 C5 9.25 5 9.25 4 12 C1 14 1 14 -2.5 13.875 C-6 13 -6 13 -7.9375 11.3125 C-9.3174949 8.30898169 -9.41747718 6.27023793 -9 3 C-6.79585148 -0.67358086 -4.01186953 -0.72213652 0 0 Z " fill="#F5F4F7" transform="translate(485,375)"/>
<path d="M0 0 C0.2578125 0.61617188 0.515625 1.23234375 0.78125 1.8671875 C2.15994345 4.27990104 3.07336605 4.86195692 5.5 6.125 C13.80243756 11.05504489 21.63835331 18.79065162 25 28 C25.35334443 30.33038694 25.68847599 32.66365492 26 35 C30.18249361 34.64379128 34.36308124 34.27097754 38.54272461 33.88305664 C39.96321835 33.75353866 41.38412608 33.6284775 42.80541992 33.50805664 C44.85461907 33.33364144 46.90176828 33.1429703 48.94921875 32.94921875 C50.17987061 32.83924561 51.41052246 32.72927246 52.6784668 32.6159668 C56.10568413 31.98040125 58.06997544 30.7972388 61 29 C61.99 29.33 62.98 29.66 64 30 C62.35 32.64 60.7 35.28 59 38 C58.34 36.68 57.68 35.36 57 34 C52.90511053 34.52221813 48.81183159 35.05550261 44.71972656 35.59912109 C43.32722206 35.78251621 41.93431393 35.96287313 40.54101562 36.14013672 C38.53933062 36.3953373 36.53916237 36.66234742 34.5390625 36.9296875 C33.33459473 37.08679199 32.13012695 37.24389648 30.88916016 37.40576172 C27.88587914 37.74735162 27.88587914 37.74735162 26 40 C24 38 24 38 23.8125 34.0625 C22.92270516 24.66686975 15.84216022 17.16567939 9.2890625 10.8828125 C6.05530941 8.22296781 2.85469658 6.61196402 -1 5 C-0.67 3.35 -0.34 1.7 0 0 Z " fill="#7ED4B7" transform="translate(619,460)"/>
<path d="M0 0 C2.53590058 1.97236712 2.67493663 2.72466662 3.25 5.75 C-2.85141969 5.85169033 -8.78769382 5.52498238 -14.86328125 4.97265625 C-18.51042137 4.69134774 -22.0942306 4.67969674 -25.75 4.75 C-24.75 1.75 -24.75 1.75 -21.5 0.0625 C-14.5825373 -2.29742861 -6.89849366 -2.29949789 0 0 Z " fill="#EBE9EE" transform="translate(544.75,419.25)"/>
<path d="M0 0 C1.875 1.0625 1.875 1.0625 3 3 C3.504958 6.9675271 3.61854451 9.10654682 1.3125 12.4375 C-1 14 -1 14 -3.5 14.5625 C-6 14 -6 14 -8.375 11.9375 C-10.48816666 8.11754488 -10.17341001 6.14604871 -9 2 C-5.53076119 -0.31282587 -4.07794425 -0.42478586 0 0 Z " fill="#F9FCF7" transform="translate(670,453)"/>
<path d="M0 0 C2.375 1.625 2.375 1.625 4 4 C4.45702733 7.19919131 4.50056349 9.08720774 2.9375 11.9375 C-0.21862905 13.66828045 -2.61304721 12.8467382 -6 12 C-7.9375 10.8125 -7.9375 10.8125 -9 9 C-9.39365568 5.85075452 -9.52854531 3.88090884 -7.875 1.125 C-5.07553259 -0.55468045 -3.20195936 -0.45742277 0 0 Z " fill="#F6F4F7" transform="translate(600,378)"/>
<path d="M0 0 C2.1015625 1.2890625 2.1015625 1.2890625 4.1015625 3.2890625 C3.7265625 5.4140625 3.7265625 5.4140625 3.1015625 7.2890625 C2.41449219 6.93972656 1.72742188 6.59039062 1.01953125 6.23046875 C0.11847656 5.77542969 -0.78257812 5.32039063 -1.7109375 4.8515625 C-2.60425781 4.39910156 -3.49757813 3.94664062 -4.41796875 3.48046875 C-8.52599388 1.50732282 -11.56783314 1.17798073 -16.0859375 1.2265625 C-17.17261719 1.23558594 -18.25929688 1.24460937 -19.37890625 1.25390625 C-20.21035156 1.26550781 -21.04179688 1.27710938 -21.8984375 1.2890625 C-20.8984375 -1.7109375 -20.8984375 -1.7109375 -18.8359375 -2.8984375 C-11.28635363 -4.98662027 -6.74257377 -3.56959788 0 0 Z " fill="#412760" transform="translate(599.8984375,352.7109375)"/>
<path d="M0 0 C0.33 0 0.66 0 1 0 C1.33 1.98 1.66 3.96 2 6 C2.61875 5.814375 3.2375 5.62875 3.875 5.4375 C6 5 6 5 8 6 C8.59765625 7.85546875 8.59765625 7.85546875 9.0625 10.1875 C9.22621094 10.99445312 9.38992188 11.80140625 9.55859375 12.6328125 C10.07765185 15.41643383 10.56942299 18.20124943 11 21 C6.55955487 19.64319732 4.54835485 17.86646942 2 14 C-0.13815565 9.18914978 -0.17818302 5.16730754 0 0 Z " fill="#6A8DDC" transform="translate(554,578)"/>
<path d="M0 0 C0.9590625 -0.02578125 1.918125 -0.0515625 2.90625 -0.078125 C5.86443253 0.29610291 6.70113073 0.94064081 8.5 3.25 C6.68529401 5.06470599 3.76205735 4.50874982 1.3125 4.625 C-3.6886959 4.96934464 -7.18559617 5.55349761 -11.5 8.25 C-13.15910004 8.93528045 -14.82332564 9.60891863 -16.5 10.25 C-15.14231796 5.36234467 -12.82965579 3.72408902 -8.5 1.25 C-5.45059327 0.23353109 -3.19630097 0.05155324 0 0 Z " fill="#5D467A" transform="translate(471.5,346.75)"/>
<path d="M0 0 C0.99 0.33 1.98 0.66 3 1 C2.10515464 8.54226804 2.10515464 8.54226804 1.46875 11.3125 C0.88129643 14.68056716 0.90556676 17.89564338 0.9375 21.3125 C0.94652344 22.56675781 0.95554687 23.82101562 0.96484375 25.11328125 C0.97644531 26.06589844 0.98804688 27.01851562 1 28 C0.01 27.67 -0.98 27.34 -2 27 C-2.144375 25.88625 -2.28875 24.7725 -2.4375 23.625 C-2.78372035 20.17857953 -2.78372035 20.17857953 -4 18 C-4.70586272 11.3648904 -2.4696541 6.09695857 0 0 Z " fill="#5A64BE" transform="translate(566,573)"/>
<path d="M0 0 C0.99 0.33 1.98 0.66 3 1 C2.56558594 1.82886719 2.13117187 2.65773438 1.68359375 3.51171875 C-0.10489491 7.21733447 -1.53782499 10.94913946 -2.9375 14.8125 C-8.86307252 30.86307252 -8.86307252 30.86307252 -12 34 C-11.61992789 26.12568547 -8.58396273 19.64926613 -5.4375 12.5 C-4.91736328 11.29601562 -4.39722656 10.09203125 -3.86132812 8.8515625 C-2.58333465 5.89693539 -1.29604466 2.94674266 0 0 Z " fill="#6BC2DA" transform="translate(617,465)"/>
<path d="M0 0 C0.33 0 0.66 0 1 0 C1.33 3.3 1.66 6.6 2 10 C3.32 10 4.64 10 6 10 C2.7 18.58 -0.6 27.16 -4 36 C-4.66 35.67 -5.32 35.34 -6 35 C-5.80664062 34.35933594 -5.61328125 33.71867188 -5.4140625 33.05859375 C-5.15367187 32.19363281 -4.89328125 31.32867188 -4.625 30.4375 C-4.36976563 29.59058594 -4.11453125 28.74367188 -3.8515625 27.87109375 C-3.57054687 26.92363281 -3.28953125 25.97617187 -3 25 C-2.649375 23.9275 -2.29875 22.855 -1.9375 21.75 C-0.82836339 17.31345357 -0.5511202 13.11594103 -0.375 8.5625 C-0.31699219 7.32209961 -0.31699219 7.32209961 -0.2578125 6.05664062 C-0.16446908 4.03808927 -0.08119039 2.01907669 0 0 Z " fill="#5C80CE" transform="translate(584,505)"/>
<path d="M0 0 C0.99 0.33 1.98 0.66 3 1 C1.35 3.64 -0.3 6.28 -2 9 C-2.66 7.68 -3.32 6.36 -4 5 C-5.59714844 5.2165625 -5.59714844 5.2165625 -7.2265625 5.4375 C-16.56070066 6.64950127 -25.57350742 7.26890153 -35 7 C-35 6.67 -35 6.34 -35 6 C-33.67609253 5.88724731 -33.67609253 5.88724731 -32.32543945 5.7722168 C-29.03500157 5.48591299 -25.74599044 5.18828873 -22.45727539 4.88305664 C-21.03678165 4.75353866 -19.61587392 4.6284775 -18.19458008 4.50805664 C-16.14538093 4.33364144 -14.09823172 4.1429703 -12.05078125 3.94921875 C-10.82012939 3.83924561 -9.58947754 3.72927246 -8.3215332 3.6159668 C-4.89431587 2.98040125 -2.93002456 1.7972388 0 0 Z " fill="#80D9B5" transform="translate(680,489)"/>
<path d="M0 0 C0.99 0 1.98 0 3 0 C5.1875 2.5 5.1875 2.5 7 5 C5.79618552 7.49361571 4.54571278 9.68143083 3 12 C2.34 12 1.68 12 1 12 C0.87625 11.071875 0.87625 11.071875 0.75 10.125 C0.18741541 7.81562433 0.18741541 7.81562433 -2.0625 6.75 C-2.701875 6.5025 -3.34125 6.255 -4 6 C-2.1875 3 -2.1875 3 0 0 Z " fill="#6CC2F4" transform="translate(285,449)"/>
<path d="M0 0 C1.53202706 0.25195908 3.05257128 0.57596777 4.5625 0.9375 C5.38878906 1.13214844 6.21507812 1.32679688 7.06640625 1.52734375 C8.02353516 1.76130859 8.02353516 1.76130859 9 2 C10.125 5.75 10.125 5.75 9 8 C4.94393835 7.53199289 1.53411321 7.12046792 -2 5 C-1.125 1.125 -1.125 1.125 0 0 Z " fill="#7A90DE" transform="translate(607,598)"/>
<path d="M0 0 C1.75 0.75 1.75 0.75 4 2 C5.0725 2.53625 6.145 3.0725 7.25 3.625 C8.61125 4.305625 8.61125 4.305625 10 5 C10 5.66 10 6.32 10 7 C9.45730469 7.26554687 8.91460937 7.53109375 8.35546875 7.8046875 C7.64003906 8.15789062 6.92460937 8.51109375 6.1875 8.875 C5.12595703 9.39707031 5.12595703 9.39707031 4.04296875 9.9296875 C1.78753582 11.0656486 1.78753582 11.0656486 -1 13 C-0.835 12.2575 -0.67 11.515 -0.5 10.75 C0.26094571 6.56479861 0.40274858 4.60412287 -2 1 C-1.34 0.67 -0.68 0.34 0 0 Z " fill="#609FF0" transform="translate(290,449)"/>
<path d="M0 0 C0.99 0.99 1.98 1.98 3 3 C1.26718538 8.3808454 -0.58836113 13.70253268 -2.5625 19 C-3.18318359 20.670625 -3.18318359 20.670625 -3.81640625 22.375 C-5 25 -5 25 -7 26 C-6.79503906 25.32453125 -6.59007812 24.6490625 -6.37890625 23.953125 C-5.97478516 22.61507813 -5.97478516 22.61507813 -5.5625 21.25 C-5.29566406 20.36828125 -5.02882813 19.4865625 -4.75390625 18.578125 C-4.38072266 17.30195313 -4.38072266 17.30195313 -4 16 C-3.67322266 14.90945313 -3.67322266 14.90945313 -3.33984375 13.796875 C-2.79443755 11.90642474 -2.79443755 11.90642474 -4 10 C-3.22265625 7.6171875 -3.22265625 7.6171875 -2.0625 4.875 C-1.68222656 3.96492188 -1.30195312 3.05484375 -0.91015625 2.1171875 C-0.60980469 1.41851562 -0.30945313 0.71984375 0 0 Z " fill="#7DA8E2" transform="translate(603,471)"/>
<path d="M0 0 C0.33 3.63 0.66 7.26 1 11 C0.34 11 -0.32 11 -1 11 C-1.66 10.01 -2.32 9.02 -3 8 C-5.55183404 6.79549696 -5.55183404 6.79549696 -8 6 C-8 4.68 -8 3.36 -8 2 C-5.09399739 0.74335022 -3.20395416 0 0 0 Z " fill="#66B9F2" transform="translate(682,375)"/>
<path d="M0 0 C0.33 0 0.66 0 1 0 C1.03738281 1.05058594 1.07476563 2.10117187 1.11328125 3.18359375 C1.45419318 10.96064722 2.08059073 17.70954149 5 25 C5.8125 27.9375 5.8125 27.9375 6 30 C5.34 30.66 4.68 31.32 4 32 C3.54778041 30.36505225 3.09642097 28.72986354 2.6484375 27.09375 C2.04408032 25.00317018 2.04408032 25.00317018 1.1640625 23.09375 C-2.01008092 15.52239871 -0.81131398 7.96651679 0 0 Z " fill="#5B98CE" transform="translate(670,521)"/>
<path d="M0 0 C-0.66 3.63 -1.32 7.26 -2 11 C-5.23475448 9.38262276 -6.70572021 8.52370777 -9 6 C-4.5 0 -4.5 0 0 0 Z " fill="#EAE4F1" transform="translate(578,475)"/>
<path d="M0 0 C2 0 2 0 4 1.875 C4.66 2.57625 5.32 3.2775 6 4 C6.66 4.66 7.32 5.32 8 6 C7.625 8.625 7.625 8.625 7 11 C1.25 7.375 1.25 7.375 -1 4 C-0.625 1.8125 -0.625 1.8125 0 0 Z " fill="#422860" transform="translate(488,473)"/>
<path d="M0 0 C1.299375 0.28617188 1.299375 0.28617188 2.625 0.578125 C3.924375 0.84882812 3.924375 0.84882812 5.25 1.125 C7.625 1.828125 7.625 1.828125 10.625 3.828125 C10.295 4.488125 9.965 5.148125 9.625 5.828125 C4.17020815 5.25991752 -0.28559256 3.88174555 -5.375 1.828125 C-2.375 -0.171875 -2.375 -0.171875 0 0 Z " fill="#688DDD" transform="translate(605.375,609.171875)"/>
<path d="M0 0 C1.54300781 -0.02513672 1.54300781 -0.02513672 3.1171875 -0.05078125 C6.4803662 0.35542085 8.3729883 1.38812281 11.125 3.3125 C8.57201553 4.58899223 7.82798316 4.03426432 5.125 3.3125 C0.19176661 2.8159204 -4.25716365 2.45363646 -8.5 5.3125 C-9.675625 6.3025 -9.675625 6.3025 -10.875 7.3125 C-8.78547985 1.20467187 -6.32828161 0.02367188 0 0 Z " fill="#A2DC65" transform="translate(643.875,421.6875)"/>
<path d="M0 0 C0.99 0.33 1.98 0.66 3 1 C2.26394531 1.72445313 1.52789062 2.44890625 0.76953125 3.1953125 C-6.43016311 10.30935914 -6.43016311 10.30935914 -13 18 C-13.66 17.67 -14.32 17.34 -15 17 C-13.87851562 15.78763672 -13.87851562 15.78763672 -12.734375 14.55078125 C-11.73949763 13.47143316 -10.74471077 12.39200163 -9.75 11.3125 C-9.25886719 10.78205078 -8.76773437 10.25160156 -8.26171875 9.70507812 C-5.37269261 6.56566972 -2.62459433 3.36822939 0 0 Z " fill="#D8CBEA" transform="translate(405,325)"/>
<path d="M0 0 C3 1 3 1 4.16796875 2.890625 C7.55201294 10.72189969 7.55201294 10.72189969 7 15 C9.31 15 11.62 15 14 15 C14 15.33 14 15.66 14 16 C13.21625 16.12375 12.4325 16.2475 11.625 16.375 C8.85942178 16.79117993 8.85942178 16.79117993 7 19 C4.6361527 16.6361527 4.77025009 16.08167502 4.625 12.875 C4.19141303 7.82739317 2.47383177 4.38905637 0 0 Z " fill="#7BD6C8" transform="translate(638,481)"/>
<path d="M0 0 C2.33028092 0.93211237 3.75891532 1.69003398 5.3125 3.6875 C6.76754733 8.5817501 5.20476052 12.59047895 3 17 C2.67 12.05 2.34 7.1 2 2 C1.34 2 0.68 2 0 2 C0 1.34 0 0.68 0 0 Z " fill="#A2D169" transform="translate(709,446)"/>
<path d="M0 0 C0.66 0.99 1.32 1.98 2 3 C-1.63 6.63 -5.26 10.26 -9 14 C-9.66 13.34 -10.32 12.68 -11 12 C-10.28972656 11.30132813 -9.57945312 10.60265625 -8.84765625 9.8828125 C-7.92855469 8.97273437 -7.00945313 8.06265625 -6.0625 7.125 C-4.68771484 5.76761719 -4.68771484 5.76761719 -3.28515625 4.3828125 C-0.98812373 2.22317745 -0.98812373 2.22317745 0 0 Z " fill="#6C92D9" transform="translate(572,548)"/>
<path d="M0 0 C2.64 0 5.28 0 8 0 C6.61198929 3.35435922 5.11371 5.11290303 2 7 C1.01 7 0.02 7 -1 7 C-0.67 6.01 -0.34 5.02 0 4 C0.66 3.67 1.32 3.34 2 3 C1.34 2.67 0.68 2.34 0 2 C0 1.34 0 0.68 0 0 Z " fill="#89B6E7" transform="translate(632,405)"/>
<path d="M0 0 C0.5775 0.226875 1.155 0.45375 1.75 0.6875 C-1.37621626 4.08167765 -3.81541027 6.2937718 -8.25 7.6875 C-6.86345583 3.41232214 -5.12511737 -0.71182186 0 0 Z " fill="#3B245E" transform="translate(463.25,349.3125)"/>
<path d="M0 0 C-0.75 4.75 -0.75 4.75 -3 7 C-5.625 6.625 -5.625 6.625 -8 6 C-6.98565881 3.46414701 -6.34981128 2.21863205 -4 0.75 C-2 0 -2 0 0 0 Z " fill="#565AAF" transform="translate(618,436)"/>
<path d="M0 0 C0.66 0 1.32 0 2 0 C3.125 2.8125 3.125 2.8125 4 6 C3.01 7.485 3.01 7.485 2 9 C1.34 9 0.68 9 0 9 C-0.33 9.66 -0.66 10.32 -1 11 C-1 9.68 -1 8.36 -1 7 C-1.66 6.67 -2.32 6.34 -3 6 C-2.01 4.02 -1.02 2.04 0 0 Z " fill="#75C6F9" transform="translate(683,368)"/>
<path d="M0 0 C0.05389087 1.95803507 0.09274217 3.91648909 0.125 5.875 C0.14820313 6.96554687 0.17140625 8.05609375 0.1953125 9.1796875 C0 12 0 12 -2 14 C-2.66 9.71 -3.32 5.42 -4 1 C-1 0 -1 0 0 0 Z " fill="#5A90D2" transform="translate(724,442)"/>
<path d="M0 0 C-2.93828597 2.50298434 -5.17902761 3.46930939 -9 4 C-9 4.33 -9 4.66 -9 5 C-10.65 5 -12.3 5 -14 5 C-13 2 -13 2 -10.9375 0.8125 C-7.14524878 -0.23642055 -3.92937998 -0.13319932 0 0 Z " fill="#513E6B" transform="translate(592,349)"/>
<path d="M0 0 C1.32830615 3.98491845 0.23204404 5.40048548 -1.4375 9.1875 C-1.91058594 10.27417969 -2.38367188 11.36085938 -2.87109375 12.48046875 C-3.42990234 13.72763672 -3.42990234 13.72763672 -4 15 C-4.66 14.67 -5.32 14.34 -6 14 C-4.45941767 8.98491285 -2.97068161 4.3852919 0 0 Z " fill="#68A7E7" transform="translate(673,552)"/>
<path d="M0 0 C0.89332031 0.03480469 1.78664063 0.06960938 2.70703125 0.10546875 C3.60808594 0.13253906 4.50914062 0.15960938 5.4375 0.1875 C6.46810547 0.23970703 6.46810547 0.23970703 7.51953125 0.29296875 C7.51953125 1.28296875 7.51953125 2.27296875 7.51953125 3.29296875 C3.22953125 3.29296875 -1.06046875 3.29296875 -5.48046875 3.29296875 C-2.48046875 0.29296875 -2.48046875 0.29296875 0 0 Z " fill="#2D124A" transform="translate(587.48046875,349.70703125)"/>
<path d="M0 0 C5.95703125 -0.29296875 5.95703125 -0.29296875 8 0 C8.99 0.99 9.98 1.98 11 3 C7.37 3 3.74 3 0 3 C0 2.01 0 1.02 0 0 Z " fill="#321555" transform="translate(469,347)"/>
<path d="M0 0 C1.37562854 1.28965176 2.70766393 2.62689293 4 4 C4 4.66 4 5.32 4 6 C1.69 6 -0.62 6 -3 6 C-1.125 1.125 -1.125 1.125 0 0 Z " fill="#E0D9E8" transform="translate(534,471)"/>
<path d="M0 0 C1.98 0.495 1.98 0.495 4 1 C3.34 2.98 2.68 4.96 2 7 C1.01 7 0.02 7 -1 7 C-0.67 4.69 -0.34 2.38 0 0 Z " fill="#8BB4E1" transform="translate(605,466)"/>
<path d="M0 0 C1.47274812 4.58188304 0.4959784 6.96836493 -1.5625 11.25 C-2.036875 12.1575 -2.51125 13.065 -3 14 C-3.66 14 -4.32 14 -5 14 C-3.45730076 9.27934033 -1.92205381 4.58335908 0 0 Z " fill="#8557D6" transform="translate(591,529)"/>
<path d="M0 0 C0.33 0 0.66 0 1 0 C1.31563182 5.26053037 0.66590937 8.44573816 -2 13 C-2.33 13 -2.66 13 -3 13 C-2.52060632 8.28596212 -2.03165952 4.33420699 0 0 Z " fill="#69AFE3" transform="translate(608,486)"/>
<path d="M0 0 C0.66 0 1.32 0 2 0 C2.33 1.98 2.66 3.96 3 6 C0.525 7.485 0.525 7.485 -2 9 C-1.34 6.03 -0.68 3.06 0 0 Z " fill="#FDD55E" transform="translate(688,305)"/>
<path d="M0 0 C0.66 0.33 1.32 0.66 2 1 C1.67 2.32 1.34 3.64 1 5 C-0.32 5.33 -1.64 5.66 -3 6 C-3.33 5.01 -3.66 4.02 -4 3 C-2.68 2.01 -1.36 1.02 0 0 Z " fill="#3E2164" transform="translate(572,473)"/>
<path d="M0 0 C0.33 0.66 0.66 1.32 1 2 C0.06553465 4.03144641 -0.93224776 6.03533587 -2 8 C-5 6 -5 6 -6 4 C-4.02 2.68 -2.04 1.36 0 0 Z " fill="#5E74C4" transform="translate(659,603)"/>
<path d="M0 0 C1.27351308 2.54702616 0.80191925 3.4282945 0.0625 6.125 C-0.13214844 6.84945312 -0.32679688 7.57390625 -0.52734375 8.3203125 C-0.76130859 9.15175781 -0.76130859 9.15175781 -1 10 C-3 7 -3 7 -3 4 C-3.66 3.67 -4.32 3.34 -5 3 C-3.35 2.01 -1.7 1.02 0 0 Z " fill="#C9BDDE" transform="translate(546,568)"/>
<path d="M0 0 C0.66 0 1.32 0 2 0 C1.67 1.98 1.34 3.96 1 6 C-0.65 6.33 -2.3 6.66 -4 7 C-2.79618552 4.50638429 -1.54571278 2.31856917 0 0 Z " fill="#7DB1E6" transform="translate(618,438)"/>
<path d="M0 0 C0.66 0.66 1.32 1.32 2 2 C1.625 4.625 1.625 4.625 1 7 C0.01 6.67 -0.98 6.34 -2 6 C-1.125 1.125 -1.125 1.125 0 0 Z " fill="#8EC5F2" transform="translate(610,456)"/>
<path d="M0 0 C1.32 0.66 2.64 1.32 4 2 C3.67 3.32 3.34 4.64 3 6 C1.68 4.68 0.36 3.36 -1 2 C-0.67 1.34 -0.34 0.68 0 0 Z " fill="#38205D" transform="translate(600,354)"/>
<path d="M0 0 C0.99 0.33 1.98 0.66 3 1 C2.01 2.32 1.02 3.64 0 5 C-1.65 4.67 -3.3 4.34 -5 4 C-2.6875 1.9375 -2.6875 1.9375 0 0 Z " fill="#8EDA9C" transform="translate(680,489)"/>
<path d="M0 0 C0.66 0 1.32 0 2 0 C1.40138258 2.35171131 0.73075648 4.6859378 0 7 C-0.99 7.495 -0.99 7.495 -2 8 C-1.125 1.125 -1.125 1.125 0 0 Z " fill="#6EC3EA" transform="translate(611,481)"/>
</svg>
